# xmcd
# 
# Track frame offsets:
#     150
#     11300
#     24372
#     34050
#     49725
#     62089
#     73572
#     84270
#     95932
#     108402
#     123007
#     135860
#     145297
#     156982
#     169620
#     183060
#     194595
#     205077
#     218910
#     230397
# 
# Disc length: 3226
# 
# Revision: 3
# Processed by: cddbd v1.5.2PL0 Copyright (c) Steve Scherf et al.
# Submitted via: BonkEnc v1.0.8
# 
DISCID=080c9814
DTITLE=Various Artist - Best Of Country Classics (Volume 2)
DYEAR=1996
DGENRE=Country
TTITLE0=Roger Miller - King Of The Road
TTITLE1=Hank Williams - Jambalaya (On The Bayou)
TTITLE2=Loretta Lynn - Don't Come Home A Drinkin' (With Lovin' On Your Mind)
TTITLE3=Bill Anderson - Mama Sang A Song
TTITLE4=Johnny Cash - I Walk The Line
TTITLE5=Marvin Rainwater - Gonna Find Me A Bluebird
TTITLE6=Leroy Van Dyke - Walk On By
TTITLE7=Goldie Hill - I Let The Stars Get In My Eyes
TTITLE8=Bill Anderson and Jan Howard - For Lovin' You
TTITLE9=Jeannie C. Riley - Harper Valley P.T.A.
TTITLE10=Patsy Cline - I Fall To Pieces
TTITLE11=Webb Pierce - In The Jailhouse Now
TTITLE12=Jack Greene - There Goes My Everything
TTITLE13=Red Foley - Chattanoogie Shoe Shine Boy
TTITLE14=Bobby Helms - My Special Angel
TTITLE15=Kitty Wells - It Wasn't God Who Made Honky Tonk Angels
TTITLE16=Warner Mack - The Bridge Washed Out
TTITLE17=Red Foley and Ernest Tubb - Goodnight Irene
TTITLE18=Red Sovine and Webb Pierce - Why Baby Why
TTITLE19=Conway Twitty - I Love You More Today
EXTD=
EXTT0=Roger Miller
EXTT1=Hank Williams
EXTT2=Loretta Lynn
EXTT3=Bill Anderson
EXTT4=Johnny Cash
EXTT5=Marvin Rainwater
EXTT6=Leroy Van Dyke
EXTT7=Goldie Hill (The Golden Hillbilly)
EXTT8=Bill Anderson and Jan Howard
EXTT9=Jeannie C. Riley
EXTT10=Patsy Cline
EXTT11=Webb Pierce
EXTT12=Jack Greene
EXTT13=Red Foley
EXTT14=Bobby Helms
EXTT15=Kitty Wells
EXTT16=Warner Mack
EXTT17=Red Foley and Ernest Tubb
EXTT18=Red Sovine and Webb Pierce
EXTT19=Conway Twitty
PLAYORDER=
